<svg width="512" height="512" xmlns="http://www.w3.org/2000/svg">

 <g>
  <title>background</title>
  <rect fill="none" id="canvas_background" height="402" width="582" y="-1" x="-1"/>
 </g>
 <g>
  <title>Layer 1</title>
  <circle fill="#525252" id="svg_2" r="246.455" cy="256" cx="255.999"/>
  <path id="Shape" fill="#313131" d="m384,128l-256,0c-17.602,0 -32,14.406 -32,32l0,192c0,17.594 14.398,32 32,32l256,0c17.594,0 32,-14.406 32,-32l0,-192c0,-17.594 -14.406,-32 -32,-32l0,0zm0,224l-32,0l0,-140.797l-96,60.797l-96,-60.797l0,140.797l-32,0l0,-192l19.203,0l108.797,67.203l108.797,-67.203l19.203,0l0,192l0,0z"/>
 </g>
</svg>