<svg width="499.99999999999994" height="499.99999999999994" xmlns="http://www.w3.org/2000/svg">

 <g>
  <title>background</title>
  <rect fill="none" id="canvas_background" height="402" width="582" y="-1" x="-1"/>
 </g>
 <g>
  <title>Layer 1</title>
  <rect fill="#000" y="-0.000003" x="0" width="500" ry="250" rx="250" id="rect2990-1" height="500"/>
  <path fill="#fff" id="rect2989-1-7" d="m128.76316,90.000057c-21.41364,0 -38.76316,17.38899 -38.76316,38.84211c0,21.45322 17.34952,38.8421 38.76316,38.8421c21.41364,0 38.76316,-17.38888 38.76316,-38.8421c0,-21.45312 -17.34952,-38.84211 -38.76316,-38.84211zm203.02631,101.13158l0,0.0263c-4.37833,-0.0156 -8.62646,0.15968 -14.18421,0.44737c-12.18891,0.63097 -40.6558,13.83786 -51.07894,34.92106c0,-9.15329 0.10526,-17.55993 0.10526,-30.10527c-12.4852,0 -28.82418,0.0789 -62.94737,0.0789c0,38.30812 -0.42105,173.97085 -0.42105,213.5l66.07895,0c0,-23.44978 0.31578,-82.35285 0.31578,-119.34211c0,-12.42047 7.50808,-41.10526 38.31579,-41.10526c27.97383,0 35.81579,23.57737 35.81579,41.10526c0,38.52259 -0.28947,92.97632 -0.28947,119.34211l66.47368,0c0,-25.77235 0.23633,-95.77893 -0.55263,-139.94737c-0.95794,-53.62831 -33.53337,-76.50988 -62.76316,-78.31579c-6.01505,-0.37149 -10.49009,-0.5893 -14.86842,-0.60526l0,0.00006zm-236.21052,6.21053l0,212.55263l66.26316,0l0,-212.55263l-66.26316,0z"/>
 </g>
</svg>